<svg xmlns="http://www.w3.org/2000/svg" width="1920" height="1080"><path d="M334,-222L528,-210L1047,-201Z" fill="#cbe2f0" stroke="#cbe2f0" stroke-width="1.51"/><path d="M528,-210L824,-185L1047,-201Z" fill="#bedaed" stroke="#bedaed" stroke-width="1.51"/><path d="M1047,-201L1133,-179L1411,-154Z" fill="#a4c6e3" stroke="#a4c6e3" stroke-width="1.51"/><path d="M1047,-201L1411,-154L1502,-160Z" fill="#9ebee0" stroke="#9ebee0" stroke-width="1.51"/><path d="M1047,-201L1502,-160L1720,-180Z" fill="#9ab9dd" stroke="#9ab9dd" stroke-width="1.51"/><path d="M1484,1220L1253,1269L1737,1267Z" fill="#1c599a" stroke="#1c599a" stroke-width="1.51"/><path d="M1737,1267L1253,1269L1816,1292Z" fill="#145193" stroke="#145193" stroke-width="1.51"/><path d="M1253,1269L784,1286L1816,1292Z" fill="#28619c" stroke="#28619c" stroke-width="1.51"/><path d="M334,-222L1047,-201L1903,-183Z" fill="#abcce6" stroke="#abcce6" stroke-width="1.51"/><path d="M1047,-201L1720,-180L1903,-183Z" fill="#96b1d9" stroke="#96b1d9" stroke-width="1.51"/><path d="M1994,201L2063,340L2076,142Z" fill="#6a84b2" stroke="#6a84b2" stroke-width="1.51"/><path d="M2063,340L2063,456L2096,525Z" fill="#5077aa" stroke="#5077aa" stroke-width="1.51"/><path d="M1948,1248L1816,1292L2106,1237Z" fill="#094083" stroke="#094083" stroke-width="1.51"/><path d="M2055,1103L2014,1116L2106,1237Z" fill="#094388" stroke="#094388" stroke-width="1.51"/><path d="M1964,815L2099,901L2109,771Z" fill="#225d9c" stroke="#225d9c" stroke-width="1.51"/><path d="M1994,628L2109,771L2116,662Z" fill="#3067a1" stroke="#3067a1" stroke-width="1.51"/><path d="M2096,525L1994,628L2116,662Z" fill="#3a6da5" stroke="#3a6da5" stroke-width="1.51"/><path d="M2099,901L1993,995L2121,1007Z" fill="#145294" stroke="#145294" stroke-width="1.51"/><path d="M2055,1103L2106,1237L2121,1007Z" fill="#094489" stroke="#094489" stroke-width="1.51"/><path d="M2109,771L2099,901L2121,1007Z" fill="#1b5595" stroke="#1b5595" stroke-width="1.51"/><path d="M2116,662L2109,771L2121,1007Z" fill="#235c98" stroke="#235c98" stroke-width="1.51"/><path d="M2069,-64L2008,-35L2128,70Z" fill="#7c8bb7" stroke="#7c8bb7" stroke-width="1.51"/><path d="M1949,85L2076,142L2128,70Z" fill="#7589b5" stroke="#7589b5" stroke-width="1.51"/><path d="M2008,-35L1949,85L2128,70Z" fill="#7a8cb9" stroke="#7a8cb9" stroke-width="1.51"/><path d="M2092,-138L2069,-64L2128,70Z" fill="#7d8bb5" stroke="#7d8bb5" stroke-width="1.51"/><path d="M2063,340L2096,525L2128,70Z" fill="#5f7eab" stroke="#5f7eab" stroke-width="1.51"/><path d="M2076,142L2063,340L2128,70Z" fill="#6d83b0" stroke="#6d83b0" stroke-width="1.51"/><path d="M2096,525L2116,662L2128,70Z" fill="#5276a6" stroke="#5276a6" stroke-width="1.51"/><path d="M2116,662L2121,1007L2128,70Z" fill="#3b6ba1" stroke="#3b6ba1" stroke-width="1.51"/><path d="M1993,995L2055,1103L2121,1007Z" fill="#104d91" stroke="#104d91" stroke-width="1.51"/><path d="M2005,519L1994,628L2096,525Z" fill="#4072aa" stroke="#4072aa" stroke-width="1.51"/><path d="M1994,628L1964,815L2109,771Z" fill="#2a67a3" stroke="#2a67a3" stroke-width="1.51"/><path d="M2014,1116L1948,1248L2106,1237Z" fill="#094185" stroke="#094185" stroke-width="1.51"/><path d="M1965,912L1993,995L2099,901Z" fill="#16579b" stroke="#16579b" stroke-width="1.51"/><path d="M1964,815L1965,912L2099,901Z" fill="#1d5c9e" stroke="#1d5c9e" stroke-width="1.51"/><path d="M1994,201L1954,297L2063,340Z" fill="#6685b4" stroke="#6685b4" stroke-width="1.51"/><path d="M2063,456L2005,519L2096,525Z" fill="#4775a9" stroke="#4775a9" stroke-width="1.51"/><path d="M1966,389L2063,456L2063,340Z" fill="#577dae" stroke="#577dae" stroke-width="1.51"/><path d="M1956,-176L2069,-64L2092,-138Z" fill="#8492bb" stroke="#8492bb" stroke-width="1.51"/><path d="M1993,995L2014,1116L2055,1103Z" fill="#0d4c92" stroke="#0d4c92" stroke-width="1.51"/><path d="M1956,-176L2008,-35L2069,-64Z" fill="#8392bd" stroke="#8392bd" stroke-width="1.51"/><path d="M1949,85L1994,201L2076,142Z" fill="#748ab9" stroke="#748ab9" stroke-width="1.51"/><path d="M1888,670L1964,815L1994,628Z" fill="#2f6dab" stroke="#2f6dab" stroke-width="1.51"/><path d="M1966,389L2005,519L2063,456Z" fill="#4f7aae" stroke="#4f7aae" stroke-width="1.51"/><path d="M1954,297L1966,389L2063,340Z" fill="#5f83b3" stroke="#5f83b3" stroke-width="1.51"/><path d="M1888,670L1888,789L1964,815Z" fill="#2a6cab" stroke="#2a6cab" stroke-width="1.51"/><path d="M1966,389L1876,431L2005,519Z" fill="#527eb4" stroke="#527eb4" stroke-width="1.51"/><path d="M1835,568L1994,628L2005,519Z" fill="#4076b0" stroke="#4076b0" stroke-width="1.51"/><path d="M1888,55L1949,85L2008,-35Z" fill="#7c91c0" stroke="#7c91c0" stroke-width="1.51"/><path d="M1956,-176L1850,-65L2008,-35Z" fill="#8597c4" stroke="#8597c4" stroke-width="1.51"/><path d="M1848,1166L1948,1248L2014,1116Z" fill="#09488f" stroke="#09488f" stroke-width="1.51"/><path d="M1993,995L1835,1001L2014,1116Z" fill="#10539a" stroke="#10539a" stroke-width="1.51"/><path d="M1835,1001L1848,1166L2014,1116Z" fill="#0b519a" stroke="#0b519a" stroke-width="1.51"/><path d="M1949,85L1860,163L1994,201Z" fill="#768ebf" stroke="#768ebf" stroke-width="1.51"/><path d="M1850,-65L1888,55L2008,-35Z" fill="#8196c4" stroke="#8196c4" stroke-width="1.51"/><path d="M1876,431L1835,568L2005,519Z" fill="#4a7eb6" stroke="#4a7eb6" stroke-width="1.51"/><path d="M1502,-160L1624,-157L1720,-180Z" fill="#93add6" stroke="#93add6" stroke-width="1.51"/><path d="M1903,-183L1850,-65L1956,-176Z" fill="#899bc8" stroke="#899bc8" stroke-width="1.51"/><path d="M1965,912L1835,1001L1993,995Z" fill="#1459a0" stroke="#1459a0" stroke-width="1.51"/><path d="M1835,568L1888,670L1994,628Z" fill="#3a76b1" stroke="#3a76b1" stroke-width="1.51"/><path d="M1860,163L1954,297L1994,201Z" fill="#6e8bbc" stroke="#6e8bbc" stroke-width="1.51"/><path d="M1133,-179L1220,-158L1411,-154Z" fill="#9fc2e1" stroke="#9fc2e1" stroke-width="1.51"/><path d="M1860,163L1871,325L1954,297Z" fill="#6a8cbe" stroke="#6a8cbe" stroke-width="1.51"/><path d="M1964,815L1888,789L1965,912Z" fill="#2163a6" stroke="#2163a6" stroke-width="1.51"/><path d="M1888,789L1822,862L1965,912Z" fill="#2065a9" stroke="#2065a9" stroke-width="1.51"/><path d="M1822,862L1835,1001L1965,912Z" fill="#1860a7" stroke="#1860a7" stroke-width="1.51"/><path d="M1954,297L1871,325L1966,389Z" fill="#6187b9" stroke="#6187b9" stroke-width="1.51"/><path d="M1871,325L1876,431L1966,389Z" fill="#5c86ba" stroke="#5c86ba" stroke-width="1.51"/><path d="M1888,55L1860,163L1949,85Z" fill="#7a92c3" stroke="#7a92c3" stroke-width="1.51"/><path d="M1848,1166L1816,1292L1948,1248Z" fill="#09478d" stroke="#09478d" stroke-width="1.51"/><path d="M1822,862L1784,929L1835,1001Z" fill="#1963aa" stroke="#1963aa" stroke-width="1.51"/><path d="M1835,1001L1764,1121L1848,1166Z" fill="#0d56a0" stroke="#0d56a0" stroke-width="1.51"/><path d="M1860,163L1775,332L1871,325Z" fill="#6b8fc2" stroke="#6b8fc2" stroke-width="1.51"/><path d="M1756,505L1835,568L1876,431Z" fill="#4c82bb" stroke="#4c82bb" stroke-width="1.51"/><path d="M1729,692L1888,789L1888,670Z" fill="#2f74b2" stroke="#2f74b2" stroke-width="1.51"/><path d="M1850,-65L1749,20L1888,55Z" fill="#829aca" stroke="#829aca" stroke-width="1.51"/><path d="M1720,-180L1850,-65L1903,-183Z" fill="#8ca0cd" stroke="#8ca0cd" stroke-width="1.51"/><path d="M1634,1223L1484,1220L1737,1267Z" fill="#145498" stroke="#145498" stroke-width="1.51"/><path d="M1720,-180L1747,-77L1850,-65Z" fill="#8ba1ce" stroke="#8ba1ce" stroke-width="1.51"/><path d="M1719,203L1775,332L1860,163Z" fill="#7194c5" stroke="#7194c5" stroke-width="1.51"/><path d="M1871,325L1775,332L1876,431Z" fill="#608bbf" stroke="#608bbf" stroke-width="1.51"/><path d="M1703,795L1822,862L1888,789Z" fill="#266db0" stroke="#266db0" stroke-width="1.51"/><path d="M1729,692L1703,795L1888,789Z" fill="#2d74b3" stroke="#2d74b3" stroke-width="1.51"/><path d="M1835,568L1729,692L1888,670Z" fill="#3a79b7" stroke="#3a79b7" stroke-width="1.51"/><path d="M1749,20L1860,163L1888,55Z" fill="#7d97c8" stroke="#7d97c8" stroke-width="1.51"/><path d="M1775,332L1715,453L1876,431Z" fill="#5b8ac0" stroke="#5b8ac0" stroke-width="1.51"/><path d="M1715,453L1756,505L1876,431Z" fill="#5387be" stroke="#5387be" stroke-width="1.51"/><path d="M1737,1267L1816,1292L1848,1166Z" fill="#0c4a8f" stroke="#0c4a8f" stroke-width="1.51"/><path d="M1747,-77L1749,20L1850,-65Z" fill="#869ecc" stroke="#869ecc" stroke-width="1.51"/><path d="M1749,20L1719,203L1860,163Z" fill="#7c98c9" stroke="#7c98c9" stroke-width="1.51"/><path d="M1706,1052L1764,1121L1835,1001Z" fill="#135ba4" stroke="#135ba4" stroke-width="1.51"/><path d="M1764,1121L1737,1267L1848,1166Z" fill="#0d5097" stroke="#0d5097" stroke-width="1.51"/><path d="M1784,929L1706,1052L1835,1001Z" fill="#1660a8" stroke="#1660a8" stroke-width="1.51"/><path d="M1756,505L1729,692L1835,568Z" fill="#427fba" stroke="#427fba" stroke-width="1.51"/><path d="M1703,795L1784,929L1822,862Z" fill="#226baf" stroke="#226baf" stroke-width="1.51"/><path d="M1658,507L1593,621L1729,692Z" fill="#4284bf" stroke="#4284bf" stroke-width="1.51"/><path d="M1583,55L1719,203L1749,20Z" fill="#809fce" stroke="#809fce" stroke-width="1.51"/><path d="M1658,507L1729,692L1756,505Z" fill="#4584be" stroke="#4584be" stroke-width="1.51"/><path d="M1634,1223L1737,1267L1764,1121Z" fill="#115298" stroke="#115298" stroke-width="1.51"/><path d="M1719,203L1647,261L1775,332Z" fill="#6f96c8" stroke="#6f96c8" stroke-width="1.51"/><path d="M1575,943L1706,1052L1784,929Z" fill="#1b66ac" stroke="#1b66ac" stroke-width="1.51"/><path d="M1703,795L1575,943L1784,929Z" fill="#226db1" stroke="#226db1" stroke-width="1.51"/><path d="M1647,261L1575,388L1715,453Z" fill="#6596c7" stroke="#6596c7" stroke-width="1.51"/><path d="M1647,261L1715,453L1775,332Z" fill="#6593c5" stroke="#6593c5" stroke-width="1.51"/><path d="M1575,943L1580,993L1706,1052Z" fill="#1c68ae" stroke="#1c68ae" stroke-width="1.51"/><path d="M1747,-77L1618,-25L1749,20Z" fill="#88a2d0" stroke="#88a2d0" stroke-width="1.51"/><path d="M1706,1052L1634,1223L1764,1121Z" fill="#1159a1" stroke="#1159a1" stroke-width="1.51"/><path d="M1579,821L1575,943L1703,795Z" fill="#2774b6" stroke="#2774b6" stroke-width="1.51"/><path d="M1577,1125L1634,1223L1706,1052Z" fill="#145ca4" stroke="#145ca4" stroke-width="1.51"/><path d="M1583,55L1606,205L1719,203Z" fill="#7da0cf" stroke="#7da0cf" stroke-width="1.51"/><path d="M1720,-180L1624,-157L1747,-77Z" fill="#8fa7d3" stroke="#8fa7d3" stroke-width="1.51"/><path d="M1715,453L1658,507L1756,505Z" fill="#508ac0" stroke="#508ac0" stroke-width="1.51"/><path d="M1390,1218L1253,1269L1484,1220Z" fill="#24609f" stroke="#24609f" stroke-width="1.51"/><path d="M1618,-25L1583,55L1749,20Z" fill="#86a4d1" stroke="#86a4d1" stroke-width="1.51"/><path d="M1624,-157L1618,-25L1747,-77Z" fill="#8ca7d3" stroke="#8ca7d3" stroke-width="1.51"/><path d="M1593,621L1579,821L1703,795Z" fill="#317dbb" stroke="#317dbb" stroke-width="1.51"/><path d="M1593,621L1703,795L1729,692Z" fill="#367eba" stroke="#367eba" stroke-width="1.51"/><path d="M994,1237L784,1286L1253,1269Z" fill="#3e6ea5" stroke="#3e6ea5" stroke-width="1.51"/><path d="M1606,205L1647,261L1719,203Z" fill="#759bcc" stroke="#759bcc" stroke-width="1.51"/><path d="M1575,388L1658,507L1715,453Z" fill="#5890c5" stroke="#5890c5" stroke-width="1.51"/><path d="M1580,993L1577,1125L1706,1052Z" fill="#1863aa" stroke="#1863aa" stroke-width="1.51"/><path d="M1504,807L1579,821L1593,621Z" fill="#3280bd" stroke="#3280bd" stroke-width="1.51"/><path d="M1583,55L1522,169L1606,205Z" fill="#80a4d2" stroke="#80a4d2" stroke-width="1.51"/><path d="M1503,458L1593,621L1658,507Z" fill="#4d8ec5" stroke="#4d8ec5" stroke-width="1.51"/><path d="M1575,388L1503,458L1658,507Z" fill="#5994c7" stroke="#5994c7" stroke-width="1.51"/><path d="M1503,458L1472,578L1593,621Z" fill="#4c90c6" stroke="#4c90c6" stroke-width="1.51"/><path d="M1475,638L1504,807L1593,621Z" fill="#3c87c1" stroke="#3c87c1" stroke-width="1.51"/><path d="M1502,-160L1618,-25L1624,-157Z" fill="#91add7" stroke="#91add7" stroke-width="1.51"/><path d="M1606,205L1475,286L1647,261Z" fill="#749fce" stroke="#749fce" stroke-width="1.51"/><path d="M1475,286L1575,388L1647,261Z" fill="#6d9dcc" stroke="#6d9dcc" stroke-width="1.51"/><path d="M1502,-160L1458,-73L1618,-25Z" fill="#90afd8" stroke="#90afd8" stroke-width="1.51"/><path d="M1577,1125L1526,1165L1634,1223Z" fill="#165ca1" stroke="#165ca1" stroke-width="1.51"/><path d="M1526,1165L1484,1220L1634,1223Z" fill="#185b9f" stroke="#185b9f" stroke-width="1.51"/><path d="M1495,1043L1577,1125L1580,993Z" fill="#1c67ad" stroke="#1c67ad" stroke-width="1.51"/><path d="M1524,55L1522,169L1583,55Z" fill="#84a8d4" stroke="#84a8d4" stroke-width="1.51"/><path d="M1524,55L1583,55L1618,-25Z" fill="#87a8d4" stroke="#87a8d4" stroke-width="1.51"/><path d="M1458,-73L1524,55L1618,-25Z" fill="#8bacd7" stroke="#8bacd7" stroke-width="1.51"/><path d="M1495,942L1575,943L1579,821Z" fill="#2574b7" stroke="#2574b7" stroke-width="1.51"/><path d="M1522,169L1475,286L1606,205Z" fill="#79a3d0" stroke="#79a3d0" stroke-width="1.51"/><path d="M1504,807L1495,942L1579,821Z" fill="#2b79b9" stroke="#2b79b9" stroke-width="1.51"/><path d="M1472,578L1475,638L1593,621Z" fill="#458cc4" stroke="#458cc4" stroke-width="1.51"/><path d="M1575,943L1495,942L1580,993Z" fill="#206fb3" stroke="#206fb3" stroke-width="1.51"/><path d="M1495,1043L1526,1165L1577,1125Z" fill="#1a63aa" stroke="#1a63aa" stroke-width="1.51"/><path d="M1495,942L1495,1043L1580,993Z" fill="#216eb2" stroke="#216eb2" stroke-width="1.51"/><path d="M1475,286L1503,458L1575,388Z" fill="#669ccb" stroke="#669ccb" stroke-width="1.51"/><path d="M1404,653L1396,773L1475,638Z" fill="#408cc4" stroke="#408cc4" stroke-width="1.51"/><path d="M1388,314L1398,446L1475,286Z" fill="#6ea4cf" stroke="#6ea4cf" stroke-width="1.51"/><path d="M1352,1125L1390,1218L1484,1220Z" fill="#2263a5" stroke="#2263a5" stroke-width="1.51"/><path d="M1475,286L1398,446L1503,458Z" fill="#669ecd" stroke="#669ecd" stroke-width="1.51"/><path d="M1475,638L1396,773L1504,807Z" fill="#3886c1" stroke="#3886c1" stroke-width="1.51"/><path d="M1421,874L1495,942L1504,807Z" fill="#2c7aba" stroke="#2c7aba" stroke-width="1.51"/><path d="M1388,208L1475,286L1522,169Z" fill="#7ba7d3" stroke="#7ba7d3" stroke-width="1.51"/><path d="M1366,58L1388,208L1522,169Z" fill="#85acd6" stroke="#85acd6" stroke-width="1.51"/><path d="M1366,58L1522,169L1524,55Z" fill="#87acd6" stroke="#87acd6" stroke-width="1.51"/><path d="M1458,-73L1408,-26L1524,55Z" fill="#8eb0d8" stroke="#8eb0d8" stroke-width="1.51"/><path d="M1495,1043L1352,1125L1526,1165Z" fill="#2067ac" stroke="#2067ac" stroke-width="1.51"/><path d="M1352,1125L1484,1220L1526,1165Z" fill="#2062a5" stroke="#2062a5" stroke-width="1.51"/><path d="M1408,-26L1366,58L1524,55Z" fill="#8cb0d8" stroke="#8cb0d8" stroke-width="1.51"/><path d="M1355,1007L1495,1043L1495,942Z" fill="#2671b3" stroke="#2671b3" stroke-width="1.51"/><path d="M1411,-154L1458,-73L1502,-160Z" fill="#96b5db" stroke="#96b5db" stroke-width="1.51"/><path d="M1398,446L1472,578L1503,458Z" fill="#5798ca" stroke="#5798ca" stroke-width="1.51"/><path d="M1396,773L1421,874L1504,807Z" fill="#3381be" stroke="#3381be" stroke-width="1.51"/><path d="M1355,1007L1352,1125L1495,1043Z" fill="#266fb1" stroke="#266fb1" stroke-width="1.51"/><path d="M1421,874L1355,1007L1495,942Z" fill="#2a77b9" stroke="#2a77b9" stroke-width="1.51"/><path d="M1398,446L1348,579L1472,578Z" fill="#5398ca" stroke="#5398ca" stroke-width="1.51"/><path d="M1472,578L1404,653L1475,638Z" fill="#478fc5" stroke="#478fc5" stroke-width="1.51"/><path d="M1388,208L1388,314L1475,286Z" fill="#78a8d2" stroke="#78a8d2" stroke-width="1.51"/><path d="M1348,579L1404,653L1472,578Z" fill="#4b93c8" stroke="#4b93c8" stroke-width="1.51"/><path d="M1411,-154L1408,-26L1458,-73Z" fill="#94b5db" stroke="#94b5db" stroke-width="1.51"/><path d="M1301,685L1396,773L1404,653Z" fill="#418ec4" stroke="#418ec4" stroke-width="1.51"/><path d="M1256,-66L1408,-26L1411,-154Z" fill="#96b9dd" stroke="#96b9dd" stroke-width="1.51"/><path d="M1396,773L1244,874L1421,874Z" fill="#3684bf" stroke="#3684bf" stroke-width="1.51"/><path d="M1244,874L1355,1007L1421,874Z" fill="#317ebc" stroke="#317ebc" stroke-width="1.51"/><path d="M1255,310L1254,456L1388,314Z" fill="#71aad2" stroke="#71aad2" stroke-width="1.51"/><path d="M1366,58L1223,142L1388,208Z" fill="#89b3d9" stroke="#89b3d9" stroke-width="1.51"/><path d="M1388,314L1254,456L1398,446Z" fill="#69a4d0" stroke="#69a4d0" stroke-width="1.51"/><path d="M1254,456L1348,579L1398,446Z" fill="#5c9fce" stroke="#5c9fce" stroke-width="1.51"/><path d="M1289,17L1366,58L1408,-26Z" fill="#90b5db" stroke="#90b5db" stroke-width="1.51"/><path d="M1256,-66L1289,17L1408,-26Z" fill="#94b9dd" stroke="#94b9dd" stroke-width="1.51"/><path d="M1220,-158L1256,-66L1411,-154Z" fill="#9bbfdf" stroke="#9bbfdf" stroke-width="1.51"/><path d="M1255,310L1388,314L1388,208Z" fill="#79acd4" stroke="#79acd4" stroke-width="1.51"/><path d="M1348,579L1301,685L1404,653Z" fill="#4994c8" stroke="#4994c8" stroke-width="1.51"/><path d="M1222,762L1244,874L1396,773Z" fill="#3c8ac2" stroke="#3c8ac2" stroke-width="1.51"/><path d="M1301,685L1222,762L1396,773Z" fill="#408fc4" stroke="#408fc4" stroke-width="1.51"/><path d="M1352,1125L1233,1159L1390,1218Z" fill="#286aa9" stroke="#286aa9" stroke-width="1.51"/><path d="M1233,1159L1253,1269L1390,1218Z" fill="#2966a4" stroke="#2966a4" stroke-width="1.51"/><path d="M1261,1038L1352,1125L1355,1007Z" fill="#2b73b3" stroke="#2b73b3" stroke-width="1.51"/><path d="M1223,142L1255,310L1388,208Z" fill="#82b1d7" stroke="#82b1d7" stroke-width="1.51"/><path d="M1141,1224L994,1237L1253,1269Z" fill="#356ca5" stroke="#356ca5" stroke-width="1.51"/><path d="M1254,456L1225,575L1348,579Z" fill="#589fcd" stroke="#589fcd" stroke-width="1.51"/><path d="M1244,874L1261,1038L1355,1007Z" fill="#317cb9" stroke="#317cb9" stroke-width="1.51"/><path d="M1289,17L1223,142L1366,58Z" fill="#8fb7db" stroke="#8fb7db" stroke-width="1.51"/><path d="M1225,575L1301,685L1348,579Z" fill="#4f98ca" stroke="#4f98ca" stroke-width="1.51"/><path d="M1261,1038L1233,1159L1352,1125Z" fill="#2b71b1" stroke="#2b71b1" stroke-width="1.51"/><path d="M1244,874L1132,1006L1261,1038Z" fill="#3680bc" stroke="#3680bc" stroke-width="1.51"/><path d="M1154,36L1223,142L1289,17Z" fill="#92bbdd" stroke="#92bbdd" stroke-width="1.51"/><path d="M1225,575L1222,762L1301,685Z" fill="#4a97c9" stroke="#4a97c9" stroke-width="1.51"/><path d="M1109,672L1222,762L1225,575Z" fill="#4f9acb" stroke="#4f9acb" stroke-width="1.51"/><path d="M1125,400L1254,456L1255,310Z" fill="#71add4" stroke="#71add4" stroke-width="1.51"/><path d="M1172,1096L1233,1159L1261,1038Z" fill="#3174b3" stroke="#3174b3" stroke-width="1.51"/><path d="M1256,-66L1154,36L1289,17Z" fill="#96bdde" stroke="#96bdde" stroke-width="1.51"/><path d="M1222,762L1161,812L1244,874Z" fill="#408dc4" stroke="#408dc4" stroke-width="1.51"/><path d="M1129,887L1132,1006L1244,874Z" fill="#3c86c1" stroke="#3c86c1" stroke-width="1.51"/><path d="M1233,1159L1141,1224L1253,1269Z" fill="#2f6ba6" stroke="#2f6ba6" stroke-width="1.51"/><path d="M1152,544L1225,575L1254,456Z" fill="#5da3d0" stroke="#5da3d0" stroke-width="1.51"/><path d="M1223,142L1132,144L1255,310Z" fill="#88b6da" stroke="#88b6da" stroke-width="1.51"/><path d="M1132,144L1105,312L1255,310Z" fill="#84b6d9" stroke="#84b6d9" stroke-width="1.51"/><path d="M1105,312L1125,400L1255,310Z" fill="#7bb2d6" stroke="#7bb2d6" stroke-width="1.51"/><path d="M1220,-158L1150,-62L1256,-66Z" fill="#9dc2e1" stroke="#9dc2e1" stroke-width="1.51"/><path d="M1150,-62L1154,36L1256,-66Z" fill="#9ac1e0" stroke="#9ac1e0" stroke-width="1.51"/><path d="M1132,1006L1172,1096L1261,1038Z" fill="#367bb8" stroke="#367bb8" stroke-width="1.51"/><path d="M1125,400L1152,544L1254,456Z" fill="#68a9d2" stroke="#68a9d2" stroke-width="1.51"/><path d="M1161,812L1129,887L1244,874Z" fill="#408bc3" stroke="#408bc3" stroke-width="1.51"/><path d="M1154,36L1132,144L1223,142Z" fill="#92bbde" stroke="#92bbde" stroke-width="1.51"/><path d="M1152,544L1109,672L1225,575Z" fill="#59a0ce" stroke="#59a0ce" stroke-width="1.51"/><path d="M1172,1096L1141,1224L1233,1159Z" fill="#3371ae" stroke="#3371ae" stroke-width="1.51"/><path d="M1133,-179L1150,-62L1220,-158Z" fill="#a2c6e3" stroke="#a2c6e3" stroke-width="1.51"/><path d="M1109,672L1161,812L1222,762Z" fill="#4895c8" stroke="#4895c8" stroke-width="1.51"/><path d="M935,1233L784,1286L994,1237Z" fill="#4774a9" stroke="#4774a9" stroke-width="1.51"/><path d="M1129,887L1047,939L1132,1006Z" fill="#4188c1" stroke="#4188c1" stroke-width="1.51"/><path d="M1125,400L1050,413L1152,544Z" fill="#6eadd5" stroke="#6eadd5" stroke-width="1.51"/><path d="M1050,413L1006,510L1152,544Z" fill="#6bacd5" stroke="#6bacd5" stroke-width="1.51"/><path d="M1109,672L1011,753L1161,812Z" fill="#4e98ca" stroke="#4e98ca" stroke-width="1.51"/><path d="M1009,1130L1141,1224L1172,1096Z" fill="#3975b2" stroke="#3975b2" stroke-width="1.51"/><path d="M1132,1006L1009,1130L1172,1096Z" fill="#3c7cb8" stroke="#3c7cb8" stroke-width="1.51"/><path d="M998,137L1105,312L1132,144Z" fill="#8fbdde" stroke="#8fbdde" stroke-width="1.51"/><path d="M1133,-179L1047,-201L1150,-62Z" fill="#a6c9e5" stroke="#a6c9e5" stroke-width="1.51"/><path d="M1047,-201L1001,-42L1150,-62Z" fill="#a6c9e5" stroke="#a6c9e5" stroke-width="1.51"/><path d="M1006,510L1109,672L1152,544Z" fill="#60a5d1" stroke="#60a5d1" stroke-width="1.51"/><path d="M992,83L1132,144L1154,36Z" fill="#98c0e1" stroke="#98c0e1" stroke-width="1.51"/><path d="M1150,-62L1001,-42L1154,36Z" fill="#9ec4e2" stroke="#9ec4e2" stroke-width="1.51"/><path d="M1011,753L1129,887L1161,812Z" fill="#4992c7" stroke="#4992c7" stroke-width="1.51"/><path d="M1018,999L1009,1130L1132,1006Z" fill="#4181bb" stroke="#4181bb" stroke-width="1.51"/><path d="M1001,-42L992,83L1154,36Z" fill="#9ec5e3" stroke="#9ec5e3" stroke-width="1.51"/><path d="M998,137L1038,330L1105,312Z" fill="#8abbdc" stroke="#8abbdc" stroke-width="1.51"/><path d="M1006,510L1013,686L1109,672Z" fill="#5ea4d0" stroke="#5ea4d0" stroke-width="1.51"/><path d="M992,83L998,137L1132,144Z" fill="#99c1e1" stroke="#99c1e1" stroke-width="1.51"/><path d="M1009,1130L994,1237L1141,1224Z" fill="#3d74ad" stroke="#3d74ad" stroke-width="1.51"/><path d="M1105,312L1038,330L1125,400Z" fill="#7eb6d8" stroke="#7eb6d8" stroke-width="1.51"/><path d="M1038,330L1050,413L1125,400Z" fill="#7ab4d8" stroke="#7ab4d8" stroke-width="1.51"/><path d="M1011,753L1047,939L1129,887Z" fill="#4990c6" stroke="#4990c6" stroke-width="1.51"/><path d="M1047,939L1018,999L1132,1006Z" fill="#4285bf" stroke="#4285bf" stroke-width="1.51"/><path d="M1013,686L1011,753L1109,672Z" fill="#559ece" stroke="#559ece" stroke-width="1.51"/><path d="M872,171L934,326L998,137Z" fill="#97c3e1" stroke="#97c3e1" stroke-width="1.51"/><path d="M941,41L992,83L1001,-42Z" fill="#a2c8e5" stroke="#a2c8e5" stroke-width="1.51"/><path d="M873,813L913,913L1011,753Z" fill="#5599cb" stroke="#5599cb" stroke-width="1.51"/><path d="M1006,510L909,632L1013,686Z" fill="#63a8d2" stroke="#63a8d2" stroke-width="1.51"/><path d="M998,137L934,326L1038,330Z" fill="#8dbede" stroke="#8dbede" stroke-width="1.51"/><path d="M1011,753L913,913L1047,939Z" fill="#4d93c7" stroke="#4d93c7" stroke-width="1.51"/><path d="M824,-185L903,-143L1047,-201Z" fill="#b3d3ea" stroke="#b3d3ea" stroke-width="1.51"/><path d="M903,-143L1001,-42L1047,-201Z" fill="#accee8" stroke="#accee8" stroke-width="1.51"/><path d="M869,461L1006,510L1050,413Z" fill="#75b3d8" stroke="#75b3d8" stroke-width="1.51"/><path d="M934,326L869,461L1050,413Z" fill="#7fb8da" stroke="#7fb8da" stroke-width="1.51"/><path d="M1038,330L934,326L1050,413Z" fill="#81b9da" stroke="#81b9da" stroke-width="1.51"/><path d="M917,1120L1009,1130L1018,999Z" fill="#4481bb" stroke="#4481bb" stroke-width="1.51"/><path d="M913,913L1018,999L1047,939Z" fill="#488cc3" stroke="#488cc3" stroke-width="1.51"/><path d="M869,461L893,516L1006,510Z" fill="#75b2d8" stroke="#75b2d8" stroke-width="1.51"/><path d="M893,516L909,632L1006,510Z" fill="#6caed6" stroke="#6caed6" stroke-width="1.51"/><path d="M935,1233L994,1237L1009,1130Z" fill="#4276af" stroke="#4276af" stroke-width="1.51"/><path d="M917,1120L935,1233L1009,1130Z" fill="#447bb4" stroke="#447bb4" stroke-width="1.51"/><path d="M909,632L1011,753L1013,686Z" fill="#5ba2d0" stroke="#5ba2d0" stroke-width="1.51"/><path d="M875,1036L917,1120L1018,999Z" fill="#4a85be" stroke="#4a85be" stroke-width="1.51"/><path d="M913,913L875,1036L1018,999Z" fill="#4d8bc2" stroke="#4d8bc2" stroke-width="1.51"/><path d="M903,-143L881,-43L1001,-42Z" fill="#accfe8" stroke="#accfe8" stroke-width="1.51"/><path d="M909,632L873,813L1011,753Z" fill="#5ba1cf" stroke="#5ba1cf" stroke-width="1.51"/><path d="M881,-43L941,41L1001,-42Z" fill="#a7cce7" stroke="#a7cce7" stroke-width="1.51"/><path d="M941,41L872,171L992,83Z" fill="#a0c7e4" stroke="#a0c7e4" stroke-width="1.51"/><path d="M992,83L872,171L998,137Z" fill="#9cc6e3" stroke="#9cc6e3" stroke-width="1.51"/><path d="M528,-210L627,-160L824,-185Z" fill="#c8e0ef" stroke="#c8e0ef" stroke-width="1.51"/><path d="M793,640L873,813L909,632Z" fill="#66a7d2" stroke="#66a7d2" stroke-width="1.51"/><path d="M872,171L802,310L934,326Z" fill="#95c3e0" stroke="#95c3e0" stroke-width="1.51"/><path d="M802,310L869,461L934,326Z" fill="#8bbedd" stroke="#8bbedd" stroke-width="1.51"/><path d="M917,1120L784,1286L935,1233Z" fill="#4b79ae" stroke="#4b79ae" stroke-width="1.51"/><path d="M881,-43L784,82L941,41Z" fill="#aacde6" stroke="#aacde6" stroke-width="1.51"/><path d="M784,82L872,171L941,41Z" fill="#a5cbe5" stroke="#a5cbe5" stroke-width="1.51"/><path d="M759,1096L784,1286L917,1120Z" fill="#5280b6" stroke="#5280b6" stroke-width="1.51"/><path d="M534,1226L376,1294L651,1229Z" fill="#6783b1" stroke="#6783b1" stroke-width="1.51"/><path d="M651,1229L376,1294L784,1286Z" fill="#607eac" stroke="#607eac" stroke-width="1.51"/><path d="M793,640L744,785L873,813Z" fill="#67a6d1" stroke="#67a6d1" stroke-width="1.51"/><path d="M893,516L793,640L909,632Z" fill="#6eaed6" stroke="#6eaed6" stroke-width="1.51"/><path d="M751,924L815,1023L913,913Z" fill="#5992c7" stroke="#5992c7" stroke-width="1.51"/><path d="M815,1023L875,1036L913,913Z" fill="#538ec3" stroke="#538ec3" stroke-width="1.51"/><path d="M875,1036L759,1096L917,1120Z" fill="#5286bd" stroke="#5286bd" stroke-width="1.51"/><path d="M789,-68L881,-43L903,-143Z" fill="#b2d2ea" stroke="#b2d2ea" stroke-width="1.51"/><path d="M873,813L751,924L913,913Z" fill="#5b98ca" stroke="#5b98ca" stroke-width="1.51"/><path d="M802,310L748,400L869,461Z" fill="#8dbfdd" stroke="#8dbfdd" stroke-width="1.51"/><path d="M815,1023L759,1096L875,1036Z" fill="#578ac0" stroke="#578ac0" stroke-width="1.51"/><path d="M746,516L793,640L893,516Z" fill="#77b3d9" stroke="#77b3d9" stroke-width="1.51"/><path d="M824,-185L789,-68L903,-143Z" fill="#b7d5ea" stroke="#b7d5ea" stroke-width="1.51"/><path d="M778,149L802,310L872,171Z" fill="#a0c8e3" stroke="#a0c8e3" stroke-width="1.51"/><path d="M784,82L778,149L872,171Z" fill="#a7cce5" stroke="#a7cce5" stroke-width="1.51"/><path d="M789,-68L784,82L881,-43Z" fill="#b0d1e8" stroke="#b0d1e8" stroke-width="1.51"/><path d="M869,461L746,516L893,516Z" fill="#7cb6d9" stroke="#7cb6d9" stroke-width="1.51"/><path d="M744,785L751,924L873,813Z" fill="#629ecd" stroke="#629ecd" stroke-width="1.51"/><path d="M-103,-221L135,-190L334,-222Z" fill="#e6f0fa" stroke="#e6f0fa" stroke-width="1.51"/><path d="M748,400L746,516L869,461Z" fill="#85bcdc" stroke="#85bcdc" stroke-width="1.51"/><path d="M744,785L703,874L751,924Z" fill="#679fcd" stroke="#679fcd" stroke-width="1.51"/><path d="M759,1096L651,1229L784,1286Z" fill="#5980b3" stroke="#5980b3" stroke-width="1.51"/><path d="M677,-44L784,82L789,-68Z" fill="#b6d5ea" stroke="#b6d5ea" stroke-width="1.51"/><path d="M703,646L744,785L793,640Z" fill="#70add4" stroke="#70add4" stroke-width="1.51"/><path d="M778,149L698,265L802,310Z" fill="#a1cae2" stroke="#a1cae2" stroke-width="1.51"/><path d="M627,-160L789,-68L824,-185Z" fill="#bedaec" stroke="#bedaec" stroke-width="1.51"/><path d="M677,-44L652,18L784,82Z" fill="#b7d6e9" stroke="#b7d6e9" stroke-width="1.51"/><path d="M746,516L688,583L793,640Z" fill="#7bb5d9" stroke="#7bb5d9" stroke-width="1.51"/><path d="M692,999L759,1096L815,1023Z" fill="#5d8ec3" stroke="#5d8ec3" stroke-width="1.51"/><path d="M751,924L692,999L815,1023Z" fill="#5f93c6" stroke="#5f93c6" stroke-width="1.51"/><path d="M627,-160L677,-44L789,-68Z" fill="#bfdaec" stroke="#bfdaec" stroke-width="1.51"/><path d="M688,583L703,646L793,640Z" fill="#78b3d7" stroke="#78b3d7" stroke-width="1.51"/><path d="M698,265L748,400L802,310Z" fill="#99c7e0" stroke="#99c7e0" stroke-width="1.51"/><path d="M658,194L698,265L778,149Z" fill="#a9cde5" stroke="#a9cde5" stroke-width="1.51"/><path d="M623,1184L651,1229L759,1096Z" fill="#5f86b8" stroke="#5f86b8" stroke-width="1.51"/><path d="M658,194L778,149L784,82Z" fill="#adcfe6" stroke="#adcfe6" stroke-width="1.51"/><path d="M652,18L658,194L784,82Z" fill="#b2d2e8" stroke="#b2d2e8" stroke-width="1.51"/><path d="M703,646L628,806L744,785Z" fill="#71abd3" stroke="#71abd3" stroke-width="1.51"/><path d="M647,415L746,516L748,400Z" fill="#8dc0dd" stroke="#8dc0dd" stroke-width="1.51"/><path d="M698,265L647,415L748,400Z" fill="#99c7e0" stroke="#99c7e0" stroke-width="1.51"/><path d="M692,999L583,1138L759,1096Z" fill="#628ec1" stroke="#628ec1" stroke-width="1.51"/><path d="M583,1138L623,1184L759,1096Z" fill="#6289bc" stroke="#6289bc" stroke-width="1.51"/><path d="M628,806L703,874L744,785Z" fill="#6da4cf" stroke="#6da4cf" stroke-width="1.51"/><path d="M703,874L692,999L751,924Z" fill="#649aca" stroke="#649aca" stroke-width="1.51"/><path d="M584,529L688,583L746,516Z" fill="#84bbdc" stroke="#84bbdc" stroke-width="1.51"/><path d="M647,415L584,529L746,516Z" fill="#8cc0dd" stroke="#8cc0dd" stroke-width="1.51"/><path d="M652,18L565,150L658,194Z" fill="#b7d4e9" stroke="#b7d4e9" stroke-width="1.51"/><path d="M547,1005L583,1138L692,999Z" fill="#6993c5" stroke="#6993c5" stroke-width="1.51"/><path d="M572,866L547,1005L692,999Z" fill="#6d9bcb" stroke="#6d9bcb" stroke-width="1.51"/><path d="M528,295L647,415L698,265Z" fill="#a3cce2" stroke="#a3cce2" stroke-width="1.51"/><path d="M572,866L692,999L703,874Z" fill="#6b9ecc" stroke="#6b9ecc" stroke-width="1.51"/><path d="M628,806L572,866L703,874Z" fill="#70a4cf" stroke="#70a4cf" stroke-width="1.51"/><path d="M688,583L508,660L703,646Z" fill="#80b6d9" stroke="#80b6d9" stroke-width="1.51"/><path d="M508,660L628,806L703,646Z" fill="#7ab1d6" stroke="#7ab1d6" stroke-width="1.51"/><path d="M541,98L565,150L652,18Z" fill="#bbd7eb" stroke="#bbd7eb" stroke-width="1.51"/><path d="M658,194L528,295L698,265Z" fill="#aacfe5" stroke="#aacfe5" stroke-width="1.51"/><path d="M584,529L508,660L688,583Z" fill="#86badb" stroke="#86badb" stroke-width="1.51"/><path d="M502,-65L652,18L677,-44Z" fill="#c1dbec" stroke="#c1dbec" stroke-width="1.51"/><path d="M627,-160L502,-65L677,-44Z" fill="#c5deee" stroke="#c5deee" stroke-width="1.51"/><path d="M508,660L533,817L628,806Z" fill="#7baed5" stroke="#7baed5" stroke-width="1.51"/><path d="M527,442L584,529L647,415Z" fill="#95c3df" stroke="#95c3df" stroke-width="1.51"/><path d="M528,295L527,442L647,415Z" fill="#a0c9e2" stroke="#a0c9e2" stroke-width="1.51"/><path d="M565,150L528,295L658,194Z" fill="#b1d2e7" stroke="#b1d2e7" stroke-width="1.51"/><path d="M502,-65L541,98L652,18Z" fill="#c1daec" stroke="#c1daec" stroke-width="1.51"/><path d="M623,1184L534,1226L651,1229Z" fill="#6384b4" stroke="#6384b4" stroke-width="1.51"/><path d="M528,-210L502,-65L627,-160Z" fill="#cce1f0" stroke="#cce1f0" stroke-width="1.51"/><path d="M533,817L572,866L628,806Z" fill="#75a8d2" stroke="#75a8d2" stroke-width="1.51"/><path d="M583,1138L534,1226L623,1184Z" fill="#6688b9" stroke="#6688b9" stroke-width="1.51"/><path d="M457,327L527,442L528,295Z" fill="#a8cee4" stroke="#a8cee4" stroke-width="1.51"/><path d="M447,927L547,1005L572,866Z" fill="#74a0ce" stroke="#74a0ce" stroke-width="1.51"/><path d="M452,1034L400,1108L583,1138Z" fill="#7192c4" stroke="#7192c4" stroke-width="1.51"/><path d="M547,1005L452,1034L583,1138Z" fill="#6e95c5" stroke="#6e95c5" stroke-width="1.51"/><path d="M457,641L508,660L584,529Z" fill="#8abbdc" stroke="#8abbdc" stroke-width="1.51"/><path d="M527,442L401,544L584,529Z" fill="#95c3e0" stroke="#95c3e0" stroke-width="1.51"/><path d="M401,544L457,641L584,529Z" fill="#90bede" stroke="#90bede" stroke-width="1.51"/><path d="M502,-65L408,20L541,98Z" fill="#c6ddee" stroke="#c6ddee" stroke-width="1.51"/><path d="M387,217L528,295L565,150Z" fill="#b6d4ea" stroke="#b6d4ea" stroke-width="1.51"/><path d="M400,1108L534,1226L583,1138Z" fill="#6c8cbe" stroke="#6c8cbe" stroke-width="1.51"/><path d="M430,-140L502,-65L528,-210Z" fill="#d0e3f2" stroke="#d0e3f2" stroke-width="1.51"/><path d="M533,817L447,927L572,866Z" fill="#77a5d1" stroke="#77a5d1" stroke-width="1.51"/><path d="M457,327L431,393L527,442Z" fill="#a6cce4" stroke="#a6cce4" stroke-width="1.51"/><path d="M541,98L387,217L565,150Z" fill="#bdd7ec" stroke="#bdd7ec" stroke-width="1.51"/><path d="M508,660L379,771L533,817Z" fill="#81b2d8" stroke="#81b2d8" stroke-width="1.51"/><path d="M447,927L452,1034L547,1005Z" fill="#749bcb" stroke="#749bcb" stroke-width="1.51"/><path d="M387,217L457,327L528,295Z" fill="#b3d3e8" stroke="#b3d3e8" stroke-width="1.51"/><path d="M408,20L342,151L541,98Z" fill="#c5dbef" stroke="#c5dbef" stroke-width="1.51"/><path d="M342,151L387,217L541,98Z" fill="#c2d9ed" stroke="#c2d9ed" stroke-width="1.51"/><path d="M457,641L379,771L508,660Z" fill="#88b6db" stroke="#88b6db" stroke-width="1.51"/><path d="M379,771L447,927L533,817Z" fill="#7eaad4" stroke="#7eaad4" stroke-width="1.51"/><path d="M400,1108L376,1294L534,1226Z" fill="#6f88b8" stroke="#6f88b8" stroke-width="1.51"/><path d="M139,1246L73,1264L376,1294Z" fill="#7889b4" stroke="#7889b4" stroke-width="1.51"/><path d="M431,393L401,544L527,442Z" fill="#9ec7e3" stroke="#9ec7e3" stroke-width="1.51"/><path d="M334,-222L430,-140L528,-210Z" fill="#d7e7f5" stroke="#d7e7f5" stroke-width="1.51"/><path d="M424,-67L408,20L502,-65Z" fill="#cce0f1" stroke="#cce0f1" stroke-width="1.51"/><path d="M430,-140L424,-67L502,-65Z" fill="#cfe2f2" stroke="#cfe2f2" stroke-width="1.51"/><path d="M280,1236L376,1294L400,1108Z" fill="#748aba" stroke="#748aba" stroke-width="1.51"/><path d="M329,421L401,544L431,393Z" fill="#a3c9e4" stroke="#a3c9e4" stroke-width="1.51"/><path d="M379,771L337,917L447,927Z" fill="#81a9d4" stroke="#81a9d4" stroke-width="1.51"/><path d="M447,927L337,917L452,1034Z" fill="#7aa0cf" stroke="#7aa0cf" stroke-width="1.51"/><path d="M337,917L313,1036L452,1034Z" fill="#7c9ece" stroke="#7c9ece" stroke-width="1.51"/><path d="M401,544L331,632L457,641Z" fill="#93bedf" stroke="#93bedf" stroke-width="1.51"/><path d="M331,632L379,771L457,641Z" fill="#8db9dc" stroke="#8db9dc" stroke-width="1.51"/><path d="M286,285L431,393L457,327Z" fill="#b1d2e8" stroke="#b1d2e8" stroke-width="1.51"/><path d="M387,217L286,285L457,327Z" fill="#b8d5ea" stroke="#b8d5ea" stroke-width="1.51"/><path d="M313,1036L400,1108L452,1034Z" fill="#7898c9" stroke="#7898c9" stroke-width="1.51"/><path d="M286,285L329,421L431,393Z" fill="#b0d1e7" stroke="#b0d1e7" stroke-width="1.51"/><path d="M280,1236L139,1246L376,1294Z" fill="#7688b5" stroke="#7688b5" stroke-width="1.51"/><path d="M270,1157L280,1236L400,1108Z" fill="#7790c0" stroke="#7790c0" stroke-width="1.51"/><path d="M302,21L342,151L408,20Z" fill="#ccdef1" stroke="#ccdef1" stroke-width="1.51"/><path d="M302,21L408,20L424,-67Z" fill="#cfe1f2" stroke="#cfe1f2" stroke-width="1.51"/><path d="M263,-56L424,-67L430,-140Z" fill="#d4e4f3" stroke="#d4e4f3" stroke-width="1.51"/><path d="M334,-222L263,-56L430,-140Z" fill="#d9e7f5" stroke="#d9e7f5" stroke-width="1.51"/><path d="M329,421L320,551L401,544Z" fill="#a0c7e4" stroke="#a0c7e4" stroke-width="1.51"/><path d="M263,-56L302,21L424,-67Z" fill="#d3e3f4" stroke="#d3e3f4" stroke-width="1.51"/><path d="M291,769L337,917L379,771Z" fill="#87afd8" stroke="#87afd8" stroke-width="1.51"/><path d="M331,632L291,769L379,771Z" fill="#8cb7dc" stroke="#8cb7dc" stroke-width="1.51"/><path d="M320,551L331,632L401,544Z" fill="#98c2e1" stroke="#98c2e1" stroke-width="1.51"/><path d="M313,1036L270,1157L400,1108Z" fill="#7a96c7" stroke="#7a96c7" stroke-width="1.51"/><path d="M342,151L286,285L387,217Z" fill="#c0d8ed" stroke="#c0d8ed" stroke-width="1.51"/><path d="M219,-84L263,-56L334,-222Z" fill="#dbe8f6" stroke="#dbe8f6" stroke-width="1.51"/><path d="M-103,-221L33,-179L135,-190Z" fill="#e9f2fb" stroke="#e9f2fb" stroke-width="1.51"/><path d="M218,426L320,551L329,421Z" fill="#a7cce5" stroke="#a7cce5" stroke-width="1.51"/><path d="M286,285L218,426L329,421Z" fill="#b2d2e8" stroke="#b2d2e8" stroke-width="1.51"/><path d="M202,659L291,769L331,632Z" fill="#92bcde" stroke="#92bcde" stroke-width="1.51"/><path d="M194,943L313,1036L337,917Z" fill="#81a3d1" stroke="#81a3d1" stroke-width="1.51"/><path d="M291,769L194,943L337,917Z" fill="#86abd6" stroke="#86abd6" stroke-width="1.51"/><path d="M203,267L286,285L342,151Z" fill="#c1d9ed" stroke="#c1d9ed" stroke-width="1.51"/><path d="M162,172L203,267L342,151Z" fill="#c7dcef" stroke="#c7dcef" stroke-width="1.51"/><path d="M302,21L160,81L342,151Z" fill="#cee0f1" stroke="#cee0f1" stroke-width="1.51"/><path d="M160,81L162,172L342,151Z" fill="#cddff2" stroke="#cddff2" stroke-width="1.51"/><path d="M320,551L202,659L331,632Z" fill="#98c1e1" stroke="#98c1e1" stroke-width="1.51"/><path d="M135,-190L219,-84L334,-222Z" fill="#dfebf7" stroke="#dfebf7" stroke-width="1.51"/><path d="M191,754L194,943L291,769Z" fill="#8bb1d9" stroke="#8bb1d9" stroke-width="1.51"/><path d="M151,1052L270,1157L313,1036Z" fill="#7e99ca" stroke="#7e99ca" stroke-width="1.51"/><path d="M218,426L165,570L320,551Z" fill="#a3c9e5" stroke="#a3c9e5" stroke-width="1.51"/><path d="M165,570L202,659L320,551Z" fill="#9cc4e2" stroke="#9cc4e2" stroke-width="1.51"/><path d="M202,659L191,754L291,769Z" fill="#91badd" stroke="#91badd" stroke-width="1.51"/><path d="M194,943L151,1052L313,1036Z" fill="#82a0cf" stroke="#82a0cf" stroke-width="1.51"/><path d="M203,267L218,426L286,285Z" fill="#b9d7ea" stroke="#b9d7ea" stroke-width="1.51"/><path d="M263,-56L160,81L302,21Z" fill="#d4e3f3" stroke="#d4e3f3" stroke-width="1.51"/><path d="M151,1052L163,1160L270,1157Z" fill="#7f97c7" stroke="#7f97c7" stroke-width="1.51"/><path d="M270,1157L163,1160L280,1236Z" fill="#7a90bf" stroke="#7a90bf" stroke-width="1.51"/><path d="M219,-84L160,81L263,-56Z" fill="#d7e6f5" stroke="#d7e6f5" stroke-width="1.51"/><path d="M163,1160L139,1246L280,1236Z" fill="#7a8ebb" stroke="#7a8ebb" stroke-width="1.51"/><path d="M203,267L104,391L218,426Z" fill="#b8d6ea" stroke="#b8d6ea" stroke-width="1.51"/><path d="M93,-40L160,81L219,-84Z" fill="#d8e7f5" stroke="#d8e7f5" stroke-width="1.51"/><path d="M-90,1221L-201,1237L73,1264Z" fill="#8492bc" stroke="#8492bc" stroke-width="1.51"/><path d="M35,813L44,864L191,754Z" fill="#92b6db" stroke="#92b6db" stroke-width="1.51"/><path d="M191,754L44,864L194,943Z" fill="#8db1d9" stroke="#8db1d9" stroke-width="1.51"/><path d="M96,305L104,391L203,267Z" fill="#bed9ec" stroke="#bed9ec" stroke-width="1.51"/><path d="M84,515L165,570L218,426Z" fill="#a8cce6" stroke="#a8cce6" stroke-width="1.51"/><path d="M104,391L84,515L218,426Z" fill="#b0d1e8" stroke="#b0d1e8" stroke-width="1.51"/><path d="M135,-190L93,-40L219,-84Z" fill="#dfebf7" stroke="#dfebf7" stroke-width="1.51"/><path d="M88,980L151,1052L194,943Z" fill="#86a4d1" stroke="#86a4d1" stroke-width="1.51"/><path d="M44,864L88,980L194,943Z" fill="#8aaad6" stroke="#8aaad6" stroke-width="1.51"/><path d="M98,625L191,754L202,659Z" fill="#98bfe0" stroke="#98bfe0" stroke-width="1.51"/><path d="M165,570L98,625L202,659Z" fill="#9dc4e2" stroke="#9dc4e2" stroke-width="1.51"/><path d="M162,172L82,213L203,267Z" fill="#c8ddef" stroke="#c8ddef" stroke-width="1.51"/><path d="M82,213L96,305L203,267Z" fill="#c4dcee" stroke="#c4dcee" stroke-width="1.51"/><path d="M98,625L35,813L191,754Z" fill="#95bdde" stroke="#95bdde" stroke-width="1.51"/><path d="M93,-40L55,23L160,81Z" fill="#d9e7f5" stroke="#d9e7f5" stroke-width="1.51"/><path d="M33,-179L93,-40L135,-190Z" fill="#e3eef8" stroke="#e3eef8" stroke-width="1.51"/><path d="M55,23L82,213L160,81Z" fill="#d3e4f4" stroke="#d3e4f4" stroke-width="1.51"/><path d="M160,81L82,213L162,172Z" fill="#cfe1f2" stroke="#cfe1f2" stroke-width="1.51"/><path d="M151,1052L64,1129L163,1160Z" fill="#8299c9" stroke="#8299c9" stroke-width="1.51"/><path d="M64,1129L139,1246L163,1160Z" fill="#7f93c1" stroke="#7f93c1" stroke-width="1.51"/><path d="M84,515L98,625L165,570Z" fill="#a3c9e5" stroke="#a3c9e5" stroke-width="1.51"/><path d="M64,1129L73,1264L139,1246Z" fill="#7e91bd" stroke="#7e91bd" stroke-width="1.51"/><path d="M-21,780L35,813L98,625Z" fill="#98bddf" stroke="#98bddf" stroke-width="1.51"/><path d="M88,980L64,1129L151,1052Z" fill="#86a0cd" stroke="#86a0cd" stroke-width="1.51"/><path d="M55,23L-46,181L82,213Z" fill="#d4e4f4" stroke="#d4e4f4" stroke-width="1.51"/><path d="M-40,35L-46,181L55,23Z" fill="#dae8f6" stroke="#dae8f6" stroke-width="1.51"/><path d="M-25,1009L-26,1106L64,1129Z" fill="#899fcd" stroke="#899fcd" stroke-width="1.51"/><path d="M-86,392L-41,545L84,515Z" fill="#b1d2e9" stroke="#b1d2e9" stroke-width="1.51"/><path d="M-25,1009L64,1129L88,980Z" fill="#88a2cf" stroke="#88a2cf" stroke-width="1.51"/><path d="M33,-179L-49,-92L93,-40Z" fill="#e4eef9" stroke="#e4eef9" stroke-width="1.51"/><path d="M82,213L-34,313L96,305Z" fill="#c6deee" stroke="#c6deee" stroke-width="1.51"/><path d="M-102,698L-21,780L98,625Z" fill="#9dc2e1" stroke="#9dc2e1" stroke-width="1.51"/><path d="M84,515L-41,545L98,625Z" fill="#a6cbe6" stroke="#a6cbe6" stroke-width="1.51"/><path d="M-86,392L84,515L104,391Z" fill="#b5d4ea" stroke="#b5d4ea" stroke-width="1.51"/><path d="M-34,313L-86,392L104,391Z" fill="#bfdaec" stroke="#bfdaec" stroke-width="1.51"/><path d="M96,305L-34,313L104,391Z" fill="#bfdbec" stroke="#bfdbec" stroke-width="1.51"/><path d="M44,864L-25,1009L88,980Z" fill="#8caad5" stroke="#8caad5" stroke-width="1.51"/><path d="M-41,545L-102,698L98,625Z" fill="#a4c8e4" stroke="#a4c8e4" stroke-width="1.51"/><path d="M64,1129L-90,1221L73,1264Z" fill="#8393bf" stroke="#8393bf" stroke-width="1.51"/><path d="M-49,-92L55,23L93,-40Z" fill="#dfebf8" stroke="#dfebf8" stroke-width="1.51"/><path d="M-26,1106L-90,1221L64,1129Z" fill="#8699c7" stroke="#8699c7" stroke-width="1.51"/><path d="M-46,181L-34,313L82,213Z" fill="#cce1f1" stroke="#cce1f1" stroke-width="1.51"/><path d="M-49,-92L-40,35L55,23Z" fill="#dfebf8" stroke="#dfebf8" stroke-width="1.51"/><path d="M-97,890L-25,1009L44,864Z" fill="#91afd8" stroke="#91afd8" stroke-width="1.51"/><path d="M35,813L-21,780L44,864Z" fill="#94b7dc" stroke="#94b7dc" stroke-width="1.51"/><path d="M-21,780L-97,890L44,864Z" fill="#95b5db" stroke="#95b5db" stroke-width="1.51"/><path d="M-103,-221L-49,-92L33,-179Z" fill="#eaf2fb" stroke="#eaf2fb" stroke-width="1.51"/><path d="M-152,581L-102,698L-41,545Z" fill="#a9cbe6" stroke="#a9cbe6" stroke-width="1.51"/><path d="M-86,392L-138,397L-41,545Z" fill="#b9d7eb" stroke="#b9d7eb" stroke-width="1.51"/><path d="M-49,-92L-158,-94L-40,35Z" fill="#e5eff9" stroke="#e5eff9" stroke-width="1.51"/><path d="M-193,30L-46,181L-40,35Z" fill="#ddeaf7" stroke="#ddeaf7" stroke-width="1.51"/><path d="M-46,181L-150,290L-34,313Z" fill="#cce1f1" stroke="#cce1f1" stroke-width="1.51"/><path d="M-164,1107L-90,1221L-26,1106Z" fill="#8a9cc9" stroke="#8a9cc9" stroke-width="1.51"/><path d="M-97,890L-181,983L-25,1009Z" fill="#92add6" stroke="#92add6" stroke-width="1.51"/><path d="M-164,1107L-26,1106L-25,1009Z" fill="#8ca2ce" stroke="#8ca2ce" stroke-width="1.51"/><path d="M-181,983L-164,1107L-25,1009Z" fill="#90a7d2" stroke="#90a7d2" stroke-width="1.51"/><path d="M-170,790L-97,890L-21,780Z" fill="#99b9dd" stroke="#99b9dd" stroke-width="1.51"/><path d="M-102,698L-170,790L-21,780Z" fill="#9dbfe0" stroke="#9dbfe0" stroke-width="1.51"/><path d="M-152,581L-152,672L-102,698Z" fill="#a7c9e5" stroke="#a7c9e5" stroke-width="1.51"/><path d="M-138,397L-152,581L-41,545Z" fill="#b3d3ea" stroke="#b3d3ea" stroke-width="1.51"/><path d="M-158,-94L-193,30L-40,35Z" fill="#e4eef9" stroke="#e4eef9" stroke-width="1.51"/><path d="M-193,30L-219,182L-46,181Z" fill="#dce9f7" stroke="#dce9f7" stroke-width="1.51"/><path d="M-103,-221L-158,-94L-49,-92Z" fill="#ebf3fb" stroke="#ebf3fb" stroke-width="1.51"/><path d="M-150,290L-86,392L-34,313Z" fill="#c7dfee" stroke="#c7dfee" stroke-width="1.51"/><path d="M-219,182L-150,290L-46,181Z" fill="#d4e5f3" stroke="#d4e5f3" stroke-width="1.51"/><path d="M-216,-204L-158,-94L-103,-221Z" fill="#eff6fd" stroke="#eff6fd" stroke-width="1.51"/><path d="M-170,790L-194,867L-97,890Z" fill="#9bb8dd" stroke="#9bb8dd" stroke-width="1.51"/><path d="M-164,1107L-201,1237L-90,1221Z" fill="#8b99c4" stroke="#8b99c4" stroke-width="1.51"/><path d="M-150,290L-138,397L-86,392Z" fill="#c4deee" stroke="#c4deee" stroke-width="1.51"/><path d="M-194,867L-181,983L-97,890Z" fill="#97b3da" stroke="#97b3da" stroke-width="1.51"/><path d="M-152,672L-170,790L-102,698Z" fill="#a2c4e2" stroke="#a2c4e2" stroke-width="1.51"/><path d="M-150,290L-219,182L-138,397Z" fill="#cee3f1" stroke="#cee3f1" stroke-width="1.51"/><path d="M-219,182L-152,581L-138,397Z" fill="#c3ddee" stroke="#c3ddee" stroke-width="1.51"/><path d="M-194,867L-170,790L-152,672Z" fill="#9fbfe0" stroke="#9fbfe0" stroke-width="1.51"/><path d="M-194,867L-152,672L-152,581Z" fill="#a4c5e3" stroke="#a4c5e3" stroke-width="1.51"/><path d="M-219,182L-194,867L-152,581Z" fill="#b2d2ea" stroke="#b2d2ea" stroke-width="1.51"/><path d="M-216,-204L-193,30L-158,-94Z" fill="#ecf3fb" stroke="#ecf3fb" stroke-width="1.51"/><path d="M-181,983L-201,1237L-164,1107Z" fill="#90a2cd" stroke="#90a2cd" stroke-width="1.51"/><path d="M-194,867L-201,1237L-181,983Z" fill="#93a9d3" stroke="#93a9d3" stroke-width="1.51"/><path d="M-216,-204L-219,182L-193,30Z" fill="#e6f0fa" stroke="#e6f0fa" stroke-width="1.51"/><path d="M-219,182L-201,1237L-194,867Z" fill="#a1c1e1" stroke="#a1c1e1" stroke-width="1.51"/></svg>